<svg width="60" height="60" viewBox="0 0 60 60" fill="none" xmlns="http://www.w3.org/2000/svg">
<rect width="60" height="60" rx="6" fill="#F0F3F8"/>
<path d="M15.5 33.6207C15.224 33.6207 15 33.389 15 33.1034V16.5517C15 15.6962 15.673 15 16.5 15H43.5C44.327 15 45 15.6962 45 16.5517V18.1034C45 18.389 44.776 18.6207 44.5 18.6207C44.224 18.6207 44 18.389 44 18.1034V16.5517C44 16.2672 43.775 16.0345 43.5 16.0345H16.5C16.225 16.0345 16 16.2672 16 16.5517V33.1034C16 33.389 15.776 33.6207 15.5 33.6207Z" fill="#34C9F3" stroke="#34C9F3" stroke-width="0.6"/>
<path d="M30 45H24.5C24.224 45 24 44.7683 24 44.4827C24 44.1972 24.224 43.9655 24.5 43.9655H25.5C26.327 43.9655 27 43.2693 27 42.4138V39.8276C27 39.5421 27.224 39.3103 27.5 39.3103C27.776 39.3103 28 39.5421 28 39.8276V42.4138C28 42.9962 27.813 43.5331 27.499 43.9655H30C30.276 43.9655 30.5 44.1972 30.5 44.4827C30.5 44.7683 30.276 45 30 45Z" fill="#34C9F3" stroke="#34C9F3" stroke-width="0.6"/>
<path d="M29.5 39.8276H16.5C15.673 39.8276 15 39.1314 15 38.2759V35.1724C15 34.8869 15.224 34.6552 15.5 34.6552H29.5C29.776 34.6552 30 34.8869 30 35.1724C30 35.4579 29.776 35.6897 29.5 35.6897H16V38.2759C16 38.5604 16.225 38.7931 16.5 38.7931H29.5C29.776 38.7931 30 39.0248 30 39.3104C30 39.5959 29.776 39.8276 29.5 39.8276Z" fill="#34C9F3" stroke="#34C9F3" stroke-width="0.6"/>
<path d="M35.5 22.2414H40.5C40.776 22.2414 41 22.0097 41 21.7242C41 21.4386 40.776 21.2069 40.5 21.2069H35.5C35.224 21.2069 35 21.4386 35 21.7242C35 22.0097 35.224 22.2414 35.5 22.2414Z" fill="#34C9F3" stroke="#34C9F3" stroke-width="0.6"/>
<path d="M37.5 42.931H38.5C38.776 42.931 39 42.6993 39 42.4138C39 42.1283 38.776 41.8965 38.5 41.8965H37.5C37.224 41.8965 37 42.1283 37 42.4138C37 42.6993 37.224 42.931 37.5 42.931Z" fill="#34C9F3" stroke="#34C9F3" stroke-width="0.6"/>
<path fill-rule="evenodd" clip-rule="evenodd" d="M33.5 45H42.5C43.879 45 45 43.8404 45 42.4138V21.7241C45 20.2976 43.879 19.1379 42.5 19.1379H33.5C32.121 19.1379 31 20.2976 31 21.7241V42.4138C31 43.8404 32.121 45 33.5 45ZM32 21.7241C32 20.8686 32.673 20.1724 33.5 20.1724H42.5C43.327 20.1724 44 20.8686 44 21.7241V42.4138C44 43.2693 43.327 43.9655 42.5 43.9655H33.5C32.673 43.9655 32 43.2693 32 42.4138V21.7241Z" fill="#34C9F3"/>
<path d="M42.5 44.7H33.5V45.3H42.5V44.7ZM44.7 42.4138C44.7 43.6843 43.7038 44.7 42.5 44.7V45.3C44.0542 45.3 45.3 43.9964 45.3 42.4138H44.7ZM44.7 21.7241V42.4138H45.3V21.7241H44.7ZM42.5 19.4379C43.7038 19.4379 44.7 20.4536 44.7 21.7241H45.3C45.3 20.1416 44.0542 18.8379 42.5 18.8379V19.4379ZM33.5 19.4379H42.5V18.8379H33.5V19.4379ZM31.3 21.7241C31.3 20.4536 32.2962 19.4379 33.5 19.4379V18.8379C31.9458 18.8379 30.7 20.1416 30.7 21.7241H31.3ZM31.3 42.4138V21.7241H30.7V42.4138H31.3ZM33.5 44.7C32.2962 44.7 31.3 43.6843 31.3 42.4138H30.7C30.7 43.9964 31.9458 45.3 33.5 45.3V44.7ZM33.5 19.8724C32.4978 19.8724 31.7 20.7126 31.7 21.7241H32.3C32.3 21.0246 32.8482 20.4724 33.5 20.4724V19.8724ZM42.5 19.8724H33.5V20.4724H42.5V19.8724ZM44.3 21.7241C44.3 20.7126 43.5022 19.8724 42.5 19.8724V20.4724C43.1518 20.4724 43.7 21.0246 43.7 21.7241H44.3ZM44.3 42.4138V21.7241H43.7V42.4138H44.3ZM42.5 44.2655C43.5022 44.2655 44.3 43.4253 44.3 42.4138H43.7C43.7 43.1133 43.1518 43.6655 42.5 43.6655V44.2655ZM33.5 44.2655H42.5V43.6655H33.5V44.2655ZM31.7 42.4138C31.7 43.4253 32.4978 44.2655 33.5 44.2655V43.6655C32.8482 43.6655 32.3 43.1133 32.3 42.4138H31.7ZM31.7 21.7241V42.4138H32.3V21.7241H31.7Z" fill="#34C9F3"/>
</svg>
