<svg width="24" height="24" viewBox="0 0 24 24" fill="none" xmlns="http://www.w3.org/2000/svg">
<path fill-rule="evenodd" clip-rule="evenodd" d="M12 2C6.47715 2 2 6.47715 2 12C2 17.5228 6.47715 22 12 22C17.5228 22 22 17.5228 22 12C22 6.47715 17.5228 2 12 2ZM16.1701 8.50377L10.7939 14.1327L8.16198 11.377C7.83882 11.0386 7.31488 11.0386 6.99172 11.377C6.66856 11.7153 6.66856 12.2639 6.99172 12.6023L10.7939 16.5833L17.3403 9.72907C17.6635 9.39071 17.6635 8.84212 17.3403 8.50377C17.0172 8.16541 16.4932 8.16541 16.1701 8.50377Z" fill="#03AF44"/>
</svg>
