<svg width="20" height="20" viewBox="0 0 20 20" fill="none" xmlns="http://www.w3.org/2000/svg">
<path d="M10.7784 1.3675C10.6547 1.04567 10.3455 0.833313 10.0006 0.833313C9.65584 0.833313 9.34664 1.04567 9.22286 1.3675L7.54623 5.72673C7.2959 6.3776 7.21723 6.56516 7.10963 6.71649C7.00166 6.86833 6.869 7.00099 6.71716 7.10896C6.56583 7.21656 6.37828 7.29523 5.7274 7.54556L1.36817 9.22219C1.04634 9.34597 0.833984 9.65517 0.833984 9.99998C0.833984 10.3448 1.04634 10.654 1.36817 10.7778L5.72741 12.4544C6.37828 12.7047 6.56584 12.7834 6.71716 12.891C6.869 12.999 7.00166 13.1316 7.10963 13.2835C7.21723 13.4348 7.2959 13.6224 7.54623 14.2732L9.22286 18.6325C9.34664 18.9543 9.65584 19.1666 10.0007 19.1666C10.3455 19.1666 10.6547 18.9543 10.7784 18.6325L12.4551 14.2732C12.7054 13.6224 12.7841 13.4348 12.8917 13.2835C12.9996 13.1316 13.1323 12.999 13.2841 12.891C13.4355 12.7834 13.623 12.7047 14.2739 12.4544L18.6331 10.7778C18.955 10.654 19.1673 10.3448 19.1673 9.99998C19.1673 9.65517 18.955 9.34597 18.6331 9.22219L14.2739 7.54556C13.623 7.29523 13.4355 7.21656 13.2841 7.10896C13.1323 7.00099 12.9996 6.86833 12.8917 6.71649C12.7841 6.56516 12.7054 6.3776 12.4551 5.72673L10.7784 1.3675Z" fill="#121212"/>
</svg>
