<svg width="45" height="45" viewBox="0 0 45 45" fill="none" xmlns="http://www.w3.org/2000/svg">
<circle cx="22.5" cy="22.5" r="22.5" fill="#EFFAFE"/>
<path fill-rule="evenodd" clip-rule="evenodd" d="M15.2353 35H29.7647C30.9991 35 32 34.0266 32 32.8261V15.9924V15.9897V15.9783C32 15.8043 31.9106 15.656 31.7793 15.5565L26.2866 10.2147C26.1843 10.0875 26.0318 10 25.8529 10H25.8418H25.8379H15.2353C14.0009 10 13 10.9734 13 12.1739V32.8261C13 34.0266 14.0009 35 15.2353 35ZM26.4118 15.4348V11.8375L30.1106 15.4348H26.4118ZM30.8824 16.5217H25.8529C25.5439 16.5217 25.2941 16.2783 25.2941 15.9783V11.087H15.2353C14.6184 11.087 14.1176 11.5739 14.1176 12.1739V32.8261C14.1176 33.4261 14.6184 33.913 15.2353 33.913H29.7647C30.3816 33.913 30.8824 33.4261 30.8824 32.8261V16.5217ZM17.4706 30.6522H27.5294C27.8384 30.6522 28.0882 30.4092 28.0882 30.1087C28.0882 29.8087 27.8384 29.5652 27.5294 29.5652H17.4706C17.1616 29.5652 16.9118 29.8087 16.9118 30.1087C16.9118 30.4092 17.1616 30.6522 17.4706 30.6522ZM27.5294 26.3043H17.4706C17.1616 26.3043 16.9118 26.0614 16.9118 25.7609C16.9118 25.4609 17.1616 25.2174 17.4706 25.2174H27.5294C27.8384 25.2174 28.0882 25.4609 28.0882 25.7609C28.0882 26.0614 27.8384 26.3043 27.5294 26.3043ZM17.4706 21.9565H27.5294C27.8384 21.9565 28.0882 21.7136 28.0882 21.413C28.0882 21.113 27.8384 20.8696 27.5294 20.8696H17.4706C17.1616 20.8696 16.9118 21.113 16.9118 21.413C16.9118 21.7136 17.1616 21.9565 17.4706 21.9565Z" fill="#34C9F3"/>
<path d="M31.7793 15.5565L31.605 15.7357L31.616 15.7465L31.6283 15.7558L31.7793 15.5565ZM26.2866 10.2147L26.0918 10.3713L26.1013 10.3832L26.1123 10.3939L26.2866 10.2147ZM26.4118 11.8375L26.5861 11.6583L26.1618 11.2456V11.8375H26.4118ZM26.4118 15.4348H26.1618V15.6848H26.4118V15.4348ZM30.1106 15.4348V15.6848H30.7263L30.2849 15.2556L30.1106 15.4348ZM30.8824 16.5217H31.1324V16.2717H30.8824V16.5217ZM25.2941 11.087H25.5441V10.837H25.2941V11.087ZM29.7647 34.75H15.2353V35.25H29.7647V34.75ZM31.75 32.8261C31.75 33.882 30.8677 34.75 29.7647 34.75V35.25C31.1306 35.25 32.25 34.1712 32.25 32.8261H31.75ZM31.75 15.9924V32.8261H32.25V15.9924H31.75ZM31.75 15.9897V15.9924H32.25V15.9897H31.75ZM31.75 15.9783V15.9897H32.25V15.9783H31.75ZM31.6283 15.7558C31.7086 15.8166 31.75 15.8959 31.75 15.9783H32.25C32.25 15.7128 32.1126 15.4953 31.9302 15.3572L31.6283 15.7558ZM26.1123 10.3939L31.605 15.7357L31.9536 15.3773L26.4609 10.0355L26.1123 10.3939ZM25.8529 10.25C25.9456 10.25 26.03 10.2945 26.0918 10.3713L26.4814 10.058C26.3387 9.88048 26.1179 9.75 25.8529 9.75V10.25ZM25.8418 10.25H25.8529V9.75H25.8418V10.25ZM25.8379 10.25H25.8418V9.75H25.8379V10.25ZM15.2353 10.25H25.8379V9.75H15.2353V10.25ZM13.25 12.1739C13.25 11.118 14.1323 10.25 15.2353 10.25V9.75C13.8694 9.75 12.75 10.8288 12.75 12.1739H13.25ZM13.25 32.8261V12.1739H12.75V32.8261H13.25ZM15.2353 34.75C14.1323 34.75 13.25 33.882 13.25 32.8261H12.75C12.75 34.1712 13.8694 35.25 15.2353 35.25V34.75ZM26.1618 11.8375V15.4348H26.6618V11.8375H26.1618ZM30.2849 15.2556L26.5861 11.6583L26.2375 12.0167L29.9363 15.614L30.2849 15.2556ZM26.4118 15.6848H30.1106V15.1848H26.4118V15.6848ZM25.8529 16.7717H30.8824V16.2717H25.8529V16.7717ZM25.0441 15.9783C25.0441 16.4227 25.4123 16.7717 25.8529 16.7717V16.2717C25.6755 16.2717 25.5441 16.1338 25.5441 15.9783H25.0441ZM25.0441 11.087V15.9783H25.5441V11.087H25.0441ZM15.2353 11.337H25.2941V10.837H15.2353V11.337ZM14.3676 12.1739C14.3676 11.7185 14.7498 11.337 15.2353 11.337V10.837C14.4869 10.837 13.8676 11.4293 13.8676 12.1739H14.3676ZM14.3676 32.8261V12.1739H13.8676V32.8261H14.3676ZM15.2353 33.663C14.7498 33.663 14.3676 33.2815 14.3676 32.8261H13.8676C13.8676 33.5707 14.4869 34.163 15.2353 34.163V33.663ZM29.7647 33.663H15.2353V34.163H29.7647V33.663ZM30.6324 32.8261C30.6324 33.2815 30.2502 33.663 29.7647 33.663V34.163C30.5131 34.163 31.1324 33.5707 31.1324 32.8261H30.6324ZM30.6324 16.5217V32.8261H31.1324V16.5217H30.6324ZM27.5294 30.4022H17.4706V30.9022H27.5294V30.4022ZM27.8382 30.1087C27.8382 30.2647 27.707 30.4022 27.5294 30.4022V30.9022C27.9699 30.9022 28.3382 30.5538 28.3382 30.1087H27.8382ZM27.5294 29.8152C27.7068 29.8152 27.8382 29.9531 27.8382 30.1087H28.3382C28.3382 29.6643 27.9701 29.3152 27.5294 29.3152V29.8152ZM17.4706 29.8152H27.5294V29.3152H17.4706V29.8152ZM17.1618 30.1087C17.1618 29.9531 17.2932 29.8152 17.4706 29.8152V29.3152C17.0299 29.3152 16.6618 29.6643 16.6618 30.1087H17.1618ZM17.4706 30.4022C17.293 30.4022 17.1618 30.2647 17.1618 30.1087H16.6618C16.6618 30.5538 17.0301 30.9022 17.4706 30.9022V30.4022ZM17.4706 26.5543H27.5294V26.0543H17.4706V26.5543ZM16.6618 25.7609C16.6618 26.206 17.0301 26.5543 17.4706 26.5543V26.0543C17.293 26.0543 17.1618 25.9168 17.1618 25.7609H16.6618ZM17.4706 24.9674C17.0299 24.9674 16.6618 25.3164 16.6618 25.7609H17.1618C17.1618 25.6053 17.2932 25.4674 17.4706 25.4674V24.9674ZM27.5294 24.9674H17.4706V25.4674H27.5294V24.9674ZM28.3382 25.7609C28.3382 25.3164 27.9701 24.9674 27.5294 24.9674V25.4674C27.7068 25.4674 27.8382 25.6053 27.8382 25.7609H28.3382ZM27.5294 26.5543C27.9699 26.5543 28.3382 26.206 28.3382 25.7609H27.8382C27.8382 25.9168 27.707 26.0543 27.5294 26.0543V26.5543ZM27.5294 21.7065H17.4706V22.2065H27.5294V21.7065ZM27.8382 21.413C27.8382 21.569 27.707 21.7065 27.5294 21.7065V22.2065C27.9699 22.2065 28.3382 21.8582 28.3382 21.413H27.8382ZM27.5294 21.1196C27.7068 21.1196 27.8382 21.2575 27.8382 21.413H28.3382C28.3382 20.9686 27.9701 20.6196 27.5294 20.6196V21.1196ZM17.4706 21.1196H27.5294V20.6196H17.4706V21.1196ZM17.1618 21.413C17.1618 21.2575 17.2932 21.1196 17.4706 21.1196V20.6196C17.0299 20.6196 16.6618 20.9686 16.6618 21.413H17.1618ZM17.4706 21.7065C17.293 21.7065 17.1618 21.569 17.1618 21.413H16.6618C16.6618 21.8582 17.0301 22.2065 17.4706 22.2065V21.7065Z" fill="#34C9F3"/>
</svg>
