<svg width="45" height="45" viewBox="0 0 45 45" fill="none" xmlns="http://www.w3.org/2000/svg">
<circle cx="22.5" cy="22.5" r="22.5" fill="#EFFAFE"/>
<path fill-rule="evenodd" clip-rule="evenodd" d="M29.9106 12H15.0884C13.3859 12 12 13.3849 12 15.0884V29.9116C12 31.6141 13.3849 33 15.0884 33H29.9116C31.6141 33 33 31.6151 33 29.9116V15.0884C32.999 13.3849 31.6141 12 29.9106 12ZM31.7636 29.9106C31.7636 30.9319 30.9329 31.7636 29.9106 31.7636H15.0884C14.0671 31.7636 13.2354 30.9329 13.2354 29.9106V27.6765L18.2198 22.1379L24.9528 28.2583L28.6763 25.1556L31.7646 27.7287V29.9106H31.7636ZM28.6752 23.5484L31.7636 26.1216H31.7646V15.0884C31.7646 14.0661 30.9329 13.2354 29.9116 13.2354H15.0884C14.0661 13.2354 13.2354 14.0671 13.2354 15.0884V25.8306L18.1327 20.3893L24.9866 26.6214L28.6752 23.5484Z" fill="#34C9F3"/>
<path d="M33 15.0884H33.2V15.0883L33 15.0884ZM31.7636 29.9106V29.7106H31.5636V29.9106H31.7636ZM13.2354 27.6765L13.0867 27.5427L13.0354 27.5998V27.6765H13.2354ZM18.2198 22.1379L18.3543 21.9899L18.2056 21.8547L18.0711 22.0041L18.2198 22.1379ZM24.9528 28.2583L24.8183 28.4063L24.9471 28.5234L25.0808 28.412L24.9528 28.2583ZM28.6763 25.1556L28.8043 25.0019L28.6763 24.8953L28.5482 25.002L28.6763 25.1556ZM31.7646 27.7287H31.9646V27.6351L31.8927 27.5751L31.7646 27.7287ZM31.7646 29.9106V30.1106H31.9646V29.9106H31.7646ZM31.7636 26.1216L31.6356 26.2752L31.6912 26.3216H31.7636V26.1216ZM28.6752 23.5484L28.8033 23.3948L28.6752 23.2881L28.5472 23.3948L28.6752 23.5484ZM31.7646 26.1216V26.3216H31.9646V26.1216H31.7646ZM13.2354 25.8306H13.0354V26.3518L13.384 25.9644L13.2354 25.8306ZM18.1327 20.3893L18.2673 20.2414L18.1185 20.1061L17.9841 20.2556L18.1327 20.3893ZM24.9866 26.6214L24.852 26.7694L24.9808 26.8865L25.1146 26.7751L24.9866 26.6214ZM15.0884 12.2H29.9106V11.8H15.0884V12.2ZM12.2 15.0884C12.2 13.4954 13.4963 12.2 15.0884 12.2V11.8C13.2755 11.8 11.8 13.2744 11.8 15.0884H12.2ZM12.2 29.9116V15.0884H11.8V29.9116H12.2ZM15.0884 32.8C13.4954 32.8 12.2 31.5037 12.2 29.9116H11.8C11.8 31.7245 13.2744 33.2 15.0884 33.2V32.8ZM29.9116 32.8H15.0884V33.2H29.9116V32.8ZM32.8 29.9116C32.8 31.5046 31.5037 32.8 29.9116 32.8V33.2C31.7245 33.2 33.2 31.7256 33.2 29.9116H32.8ZM32.8 15.0884V29.9116H33.2V15.0884H32.8ZM29.9106 12.2C31.5036 12.2 32.799 13.4954 32.8 15.0885L33.2 15.0883C33.1989 13.2744 31.7245 11.8 29.9106 11.8V12.2ZM29.9106 31.9636C31.0434 31.9636 31.9636 31.0422 31.9636 29.9106H31.5636C31.5636 30.8215 30.8224 31.5636 29.9106 31.5636V31.9636ZM15.0884 31.9636H29.9106V31.5636H15.0884V31.9636ZM13.0354 29.9106C13.0354 31.0434 13.9567 31.9636 15.0884 31.9636V31.5636C14.1775 31.5636 13.4354 30.8224 13.4354 29.9106H13.0354ZM13.0354 27.6765V29.9106H13.4354V27.6765H13.0354ZM18.0711 22.0041L13.0867 27.5427L13.384 27.8103L18.3685 22.2717L18.0711 22.0041ZM25.0873 28.1103L18.3543 21.9899L18.0853 22.2859L24.8183 28.4063L25.0873 28.1103ZM28.5482 25.002L24.8247 28.1047L25.0808 28.412L28.8043 25.3092L28.5482 25.002ZM31.8927 27.5751L28.8043 25.0019L28.5482 25.3093L31.6366 27.8824L31.8927 27.5751ZM31.9646 29.9106V27.7287H31.5646V29.9106H31.9646ZM31.7636 30.1106H31.7646V29.7106H31.7636V30.1106ZM31.8916 25.9679L28.8033 23.3948L28.5472 23.7021L31.6356 26.2752L31.8916 25.9679ZM31.7646 25.9216H31.7636V26.3216H31.7646V25.9216ZM31.5646 15.0884V26.1216H31.9646V15.0884H31.5646ZM29.9116 13.4354C30.8225 13.4354 31.5646 14.1766 31.5646 15.0884H31.9646C31.9646 13.9556 31.0433 13.0354 29.9116 13.0354V13.4354ZM15.0884 13.4354H29.9116V13.0354H15.0884V13.4354ZM13.4354 15.0884C13.4354 14.1775 14.1766 13.4354 15.0884 13.4354V13.0354C13.9556 13.0354 13.0354 13.9567 13.0354 15.0884H13.4354ZM13.4354 25.8306V15.0884H13.0354V25.8306H13.4354ZM17.9841 20.2556L13.0867 25.6968L13.384 25.9644L18.2814 20.5231L17.9841 20.2556ZM25.1211 26.4735L18.2673 20.2414L17.9982 20.5373L24.852 26.7694L25.1211 26.4735ZM28.5472 23.3948L24.8586 26.4678L25.1146 26.7751L28.8033 23.7021L28.5472 23.3948Z" fill="#34C9F3"/>
<path fill-rule="evenodd" clip-rule="evenodd" d="M29.9116 18.1758C29.9116 19.8792 28.5257 21.2641 26.8232 21.2641C25.1198 21.2641 23.7349 19.8792 23.7349 18.1758C23.7349 16.4723 25.1208 15.0874 26.8232 15.0874C28.5267 15.0874 29.9116 16.4723 29.9116 18.1758ZM28.6763 18.1768C28.6763 17.1545 27.8445 16.3237 26.8232 16.3237C25.801 16.3237 24.9702 17.1545 24.9702 18.1768C24.9702 19.1991 25.801 20.0298 26.8232 20.0298C27.8455 20.0298 28.6763 19.1991 28.6763 18.1768Z" fill="#34C9F3"/>
<path d="M26.8232 21.4641C28.6361 21.4641 30.1116 19.9897 30.1116 18.1758H29.7116C29.7116 19.7687 28.4153 21.0641 26.8232 21.0641V21.4641ZM23.5349 18.1758C23.5349 19.9897 25.0093 21.4641 26.8232 21.4641V21.0641C25.2302 21.0641 23.9349 19.7688 23.9349 18.1758H23.5349ZM26.8232 14.8874C25.0104 14.8874 23.5349 16.3618 23.5349 18.1758H23.9349C23.9349 16.5828 25.2312 15.2874 26.8232 15.2874V14.8874ZM30.1116 18.1758C30.1116 16.3618 28.6372 14.8874 26.8232 14.8874V15.2874C28.4163 15.2874 29.7116 16.5827 29.7116 18.1758H30.1116ZM26.8232 16.5237C27.7341 16.5237 28.4763 17.265 28.4763 18.1768H28.8763C28.8763 17.044 27.9549 16.1237 26.8232 16.1237V16.5237ZM25.1702 18.1768C25.1702 17.2649 25.9114 16.5237 26.8232 16.5237V16.1237C25.6905 16.1237 24.7702 17.044 24.7702 18.1768H25.1702ZM26.8232 19.8298C25.9114 19.8298 25.1702 19.0886 25.1702 18.1768H24.7702C24.7702 19.3095 25.6905 20.2298 26.8232 20.2298V19.8298ZM28.4763 18.1768C28.4763 19.0886 27.7351 19.8298 26.8232 19.8298V20.2298C27.956 20.2298 28.8763 19.3095 28.8763 18.1768H28.4763Z" fill="#34C9F3"/>
</svg>
