<svg width="41" height="41" viewBox="0 0 41 41" fill="none" xmlns="http://www.w3.org/2000/svg">
<rect width="41" height="41" rx="8" fill="#E6F9F7"/>
<path fill-rule="evenodd" clip-rule="evenodd" d="M30.0455 9H17.6364L10 16.6667V31.0417C10 31.6167 10.3818 32 10.9545 32H30.0455C30.6182 32 31 31.6167 31 31.0417V9.95833C31 9.38333 30.6182 9 30.0455 9ZM17.6364 11.3958V16.6667H12.3864L17.6364 11.3958ZM11.9091 30.0833H29.0909V10.9167H18.5909V16.6667C18.5909 17.2417 18.2091 17.625 17.6364 17.625H11.9091V30.0833Z" fill="#34C9F3"/>
<path fill-rule="evenodd" clip-rule="evenodd" d="M16.1091 25.3875L18.1137 23.375C17.8273 22.8 17.541 22.1292 17.6364 21.4583C17.6364 19.35 19.3546 17.625 21.4546 17.625C23.5546 17.625 25.2728 19.35 25.2728 21.4583C25.2728 23.5667 23.5546 25.2917 21.4546 25.2917C20.7864 25.2917 20.1182 25.1 19.5455 24.7167L17.4455 26.825C17.0637 27.2083 16.3955 27.3042 16.0137 26.9208C15.6319 26.5375 15.7273 25.7708 16.1091 25.3875ZM23.2682 21.4583C23.2682 20.4042 22.4091 19.5417 21.3591 19.5417C20.3091 19.5417 19.4501 20.4042 19.4501 21.4583C19.4501 22.5125 20.3091 23.375 21.3591 23.375C22.4091 23.375 23.2682 22.5125 23.2682 21.4583Z" fill="#34C9F3"/>
</svg>
